<?xml version="1.0" encoding="UTF-8"?>
<svg id="Layer_1" data-name="Layer 1" xmlns="http://www.w3.org/2000/svg" version="1.1" viewBox="0 0 337.28 313.01">
  <defs>
    <style>
      .cls-1 {
        fill: #ac0015;
      }

      .cls-1, .cls-2 {
        stroke-width: 0px;
      }

      .cls-2 {
        fill: #000049;
      }
    </style>
  </defs>
  <polygon class="cls-1" points="182.64 183.95 163.16 313.01 182.64 313.01 182.64 183.95"/>
  <polygon class="cls-1" points="213.08 174.21 284.92 258.22 298.31 248.48 213.08 174.21"/>
  <polygon class="cls-1" points="197.25 135.24 264.22 6.18 284.92 19.57 197.25 135.24"/>
  <polygon class="cls-1" points="163.16 152.29 0 183.95 8.52 196.12 163.16 152.29"/>
  <polygon class="cls-2" points="163.16 135.24 71.84 85.32 88.88 70.71 163.16 135.24"/>
  <polygon class="cls-2" points="172.9 125.5 122.98 30.53 147.94 24.44 172.9 125.5"/>
  <path class="cls-2" d="M187.51,125.5c2.44-8.52,9.74-114.45,9.74-114.45h24.35l-34.09,114.45Z"/>
  <polygon class="cls-2" points="213.08 141.33 337.28 97.5 337.28 114.54 213.08 141.33"/>
  <polygon class="cls-2" points="213.08 158.38 315.36 183.95 309.27 196.12 213.08 158.38"/>
  <polygon class="cls-2" points="204.56 177.25 233.78 271.61 221.6 271.61 204.56 177.25"/>
  <polygon class="cls-2" points="172.9 164.47 108.37 248.48 97.41 233.87 172.9 164.47"/>
  <polygon class="cls-2" points="168.63 0 166.34 9.16 157.99 13 167.01 14.08 170.38 22.1 172.13 14.08 182.64 9.77 171.46 7.68 168.63 0"/>
  <polygon class="cls-2" points="299 46.18 296.71 55.34 288.35 59.18 297.38 60.26 300.75 68.27 302.5 60.26 313.01 55.95 301.83 53.86 299 46.18"/>
  <polygon class="cls-2" points="140.54 247.17 138.25 256.33 129.89 260.17 138.92 261.25 142.29 269.27 144.04 261.25 154.55 256.94 143.37 254.85 140.54 247.17"/>
  <polygon class="cls-1" points="57.83 131.34 55.54 140.5 47.18 144.34 56.21 145.41 59.58 153.43 61.33 145.41 71.84 141.1 60.66 139.01 57.83 131.34"/>
  <polygon class="cls-1" points="305.65 207.51 303.36 216.67 295 220.51 304.03 221.58 307.4 229.6 309.15 221.58 319.66 217.27 308.48 215.18 305.65 207.51"/>
</svg>